# xmcd
#
# Track frame offsets: 
#        150
#        14989
#        33321
#        45371
#        67904
#        93259
#        110989
#        132623
#        148503
#        166580
#
# Disc length: 2446 seconds
#
# Revision: 0
# Processed by: cddbd v1.5.2PL0 Copyright (c) Steve Scherf et al.
# Submitted via: ExactAudioCopyFreeDBPlugin 1.0
#
DISCID=87098c0a
DTITLE=รวมศิลปิน - รวมฮิต ซูซู and วงกะท้อน Disc 2
DYEAR=1900
DGENRE=
TTITLE0=สาวรำวง
TTITLE1=รถอีแต๋น
TTITLE2=นักปั้น
TTITLE3=งัวน้อย
TTITLE4=อาฟริกา
TTITLE5=พ่อจ๋าแม่จ๋า
TTITLE6=จักรยาน
TTITLE7=แข่งขัน
TTITLE8=เอ็กซเรย์
TTITLE9=นักเรียนเคารพ
EXTD=
EXTT0=
EXTT1=
EXTT2=
EXTT3=
EXTT4=
EXTT5=
EXTT6=
EXTT7=
EXTT8=
EXTT9=
PLAYORDER=
